<?xml version="1.0" encoding="UTF-8"?>
<svg version="1.1" xmlns="http://www.w3.org/2000/svg" width="2000" height="2000">
<path d="M0 0 C660 0 1320 0 2000 0 C2000 660 2000 1320 2000 2000 C1340 2000 680 2000 0 2000 C0 1340 0 680 0 0 Z " fill="#FEFEFE" transform="translate(0,0)"/>
<path d="M0 0 C2.43079897 0.00315247 4.86036642 -0.02037594 7.29101562 -0.0456543 C22.52983822 -0.10944687 37.12934754 1.86560176 51.57226562 6.87817383 C52.57547852 7.22041992 53.57869141 7.56266602 54.61230469 7.9152832 C81.0518793 17.24886211 105.95959181 33.38888982 123.69726562 55.31567383 C124.85355469 56.73299805 124.85355469 56.73299805 126.03320312 58.17895508 C139.46422726 74.95074388 150.1277751 94.50049797 155.69726562 115.31567383 C155.92575195 116.1596875 156.15423828 117.00370117 156.38964844 117.87329102 C166.56413702 157.04300687 161.18306678 198.93199625 141.69726562 234.31567383 C141.13265625 235.37012695 140.56804687 236.42458008 139.98632812 237.51098633 C120.83616183 271.94532291 86.40214087 299.18717138 48.69726562 310.31567383 C43.07898151 311.87530744 37.41862057 313.19576745 31.69726562 314.31567383 C30.84616211 314.49445068 29.99505859 314.67322754 29.11816406 314.85742188 C20.9863063 316.41669935 12.96553397 316.65535097 4.71728516 316.63134766 C2.46402065 316.62819725 0.21208695 316.65170551 -2.04101562 316.67700195 C-12.1235592 316.72109872 -21.47531932 315.52262035 -31.30273438 313.31567383 C-32.20765625 313.12223389 -33.11257813 312.92879395 -34.04492188 312.72949219 C-63.90842286 306.11286025 -90.06565987 290.11161871 -111.30273438 268.31567383 C-111.85960937 267.80391602 -112.41648437 267.2921582 -112.99023438 266.76489258 C-127.71445197 252.90156674 -137.20432557 234.58369573 -145.30273438 216.31567383 C-145.88861328 215.04336914 -145.88861328 215.04336914 -146.48632812 213.74536133 C-149.57676707 206.65057933 -151.25336549 199.12782647 -152.828125 191.57421875 C-153.14502311 190.0661815 -153.48765567 188.56332839 -153.85546875 187.06689453 C-155.82059006 178.19500123 -155.60439306 169.23929532 -155.56347656 160.20068359 C-155.55277132 157.38788223 -155.56340993 154.57572125 -155.57617188 151.76293945 C-155.58683102 139.40454351 -154.67429065 127.88328712 -151.05273438 116.00317383 C-150.83584961 115.28516602 -150.61896484 114.5671582 -150.39550781 113.82739258 C-142.34195732 87.79941718 -128.67200723 64.53170877 -109.30273438 45.31567383 C-108.51962891 44.53667725 -108.51962891 44.53667725 -107.72070312 43.74194336 C-89.05464636 25.38812294 -65.75291928 12.3351389 -40.67773438 5.00317383 C-39.85571533 4.76058838 -39.03369629 4.51800293 -38.18676758 4.26806641 C-25.57559356 0.76379263 -13.01054944 -0.0351004 0 0 Z " fill="#0260FF" transform="translate(456.302734375,338.684326171875)"/>
<path d="M0 0 C1.7265625 1.28515625 1.7265625 1.28515625 3 3 C4.45776554 15.28688094 -1.02989139 28.29934219 -4.57666016 39.94702148 C-10.11818027 58.17968899 -15.00987445 76.61048289 -20 95 C-19.44511902 94.99111755 -18.89023804 94.98223511 -18.31854248 94.9730835 C-12.54368389 94.88459407 -6.76901784 94.82425947 -0.99365234 94.78027344 C1.16170067 94.76015724 3.31699911 94.73286075 5.47216797 94.69824219 C8.57012395 94.64972514 11.66735846 94.62703127 14.765625 94.609375 C15.72929993 94.58872986 16.69297485 94.56808472 17.68585205 94.54681396 C24.36847898 94.54457222 24.36847898 94.54457222 27.61791992 96.88793945 C29.25160739 99.38450018 29.43399476 100.5011647 29.0625 103.4375 C28.95615234 104.54931641 28.95615234 104.54931641 28.84765625 105.68359375 C26.80127012 111.27579178 20.93613269 114.69831994 16.25 118.0625 C15.59878174 118.53510254 14.94756348 119.00770508 14.27661133 119.49462891 C8.73292917 123.50495217 3.14158554 127.44813425 -2.45678711 131.3815918 C-7.60703493 135.00317694 -12.71684664 138.67709133 -17.8125 142.375 C-24.99837828 147.58646114 -32.25277448 152.69275403 -39.53613281 157.7668457 C-45.08774158 161.64147316 -50.58815923 165.57962795 -56.0625 169.5625 C-62.47566208 174.22322826 -68.95749489 178.77257172 -75.5 183.25 C-76.31992432 183.81146729 -77.13984863 184.37293457 -77.98461914 184.95141602 C-86.38622428 190.67365309 -86.38622428 190.67365309 -92 190 C-94.4375 188.125 -94.4375 188.125 -96 185 C-96.09819957 178.11031783 -94.2400847 171.53149645 -92.25 165 C-91.70120056 163.1408086 -91.15303324 161.28143049 -90.60546875 159.421875 C-90.3326709 158.50470703 -90.05987305 157.58753906 -89.77880859 156.64257812 C-88.66309073 152.85683199 -87.61072887 149.05486079 -86.5625 145.25 C-86.3655957 144.54866943 -86.16869141 143.84733887 -85.96582031 143.12475586 C-84.69046959 138.57187467 -83.48357755 134.00565947 -82.30859375 129.42578125 C-81.70580304 127.13800137 -81.10293883 124.85024085 -80.5 122.5625 C-80.22744385 121.46518555 -79.9548877 120.36787109 -79.67407227 119.23730469 C-79.40006592 118.2115332 -79.12605957 117.18576172 -78.84375 116.12890625 C-78.49086914 114.75327515 -78.49086914 114.75327515 -78.13085938 113.34985352 C-75.90199956 108.71842525 -70.87087994 107.46089876 -66.24967957 105.83052063 C-65.17282646 105.46001839 -65.17282646 105.46001839 -64.07421875 105.08203125 C-63.32662796 104.81992355 -62.57903717 104.55781586 -61.80879211 104.2877655 C-59.43680852 103.45747123 -57.06223591 102.63488498 -54.6875 101.8125 C-53.07208815 101.24855498 -51.45685175 100.68410714 -49.84179688 100.11914062 C-45.8965381 98.74026567 -41.94894028 97.36829402 -38 96 C-38.98083557 95.99635437 -39.96167114 95.99270874 -40.972229 95.98895264 C-50.21292003 95.95202123 -59.45327724 95.89426908 -68.69371414 95.81609726 C-73.44442381 95.77657754 -78.19494687 95.7444112 -82.94580078 95.72900391 C-87.53015166 95.7138668 -92.11398969 95.67947409 -96.69811249 95.63169098 C-98.44756362 95.61684667 -100.19708796 95.60895724 -101.94660187 95.60811615 C-104.39627342 95.60575383 -106.84451914 95.57873574 -109.29394531 95.54589844 C-110.01827255 95.5509288 -110.74259979 95.55595917 -111.48887634 95.56114197 C-114.84356312 95.49150313 -116.70915392 95.21383753 -119.44256592 93.2041626 C-121.33704997 90.52298917 -121.68666299 88.33594016 -121.51123047 85.06860352 C-119.8587703 78.3822162 -112.63535629 73.98700669 -107.25 70.375 C-105.73361991 69.33182593 -104.21802038 68.28751649 -102.703125 67.2421875 C-101.92646484 66.70948242 -101.14980469 66.17677734 -100.34960938 65.62792969 C-96.52388233 62.97727009 -92.76394131 60.23733738 -89 57.5 C-82.50031985 52.78836198 -75.9613427 48.13701092 -69.39453125 43.51953125 C-64.2343328 39.88545434 -59.1107106 36.20328599 -54 32.5 C-47.51045827 27.7975954 -40.98465848 23.15125313 -34.42749023 18.54370117 C-28.14545329 14.12181129 -21.92046406 9.62266153 -15.7109375 5.09960938 C-14.99292969 4.57818359 -14.27492188 4.05675781 -13.53515625 3.51953125 C-12.899729 3.05651611 -12.26430176 2.59350098 -11.60961914 2.11645508 C-8.01816954 -0.37462623 -4.26883168 -0.71006309 0 0 Z " fill="#FCFDFF" transform="translate(505,402)"/>
<path d="M0 0 C6.53135678 0.12764867 15.46387676 1.65137676 20.1875 6.375 C19.79766677 11.07660337 18.71254172 15.48992331 17.4453125 20.0234375 C17.10242188 21.26778564 16.75953125 22.51213379 16.40625 23.79418945 C16.22707031 24.44054352 16.04789063 25.08689758 15.86328125 25.75283813 C11.86036905 40.26760893 8.04575908 54.46801909 7.8125 69.625 C7.79123047 70.68134644 7.79123047 70.68134644 7.76953125 71.7590332 C7.8120739 76.129759 8.6046872 78.84925554 11.1875 82.375 C14.05484521 82.3438059 14.05484521 82.3438059 17.1875 81.375 C20.4218564 77.23527357 22.41465055 72.8851028 24.0625 67.9375 C24.43822144 66.81239014 24.43822144 66.81239014 24.8215332 65.66455078 C28.48109852 54.01001483 30.39134845 41.85343256 32.55761719 29.85009766 C33.08662229 26.93154778 33.6321319 24.01756717 34.1953125 21.10546875 C34.40571167 20.01516357 34.40571167 20.01516357 34.62036133 18.90283203 C34.74564209 18.25427246 34.87092285 17.60571289 35 16.9375 C35.69474377 13.30377955 36.27820882 9.70079793 36.69921875 6.02734375 C37.1875 2.375 37.1875 2.375 38.1875 1.375 C43.8347371 0.97577373 48.29099564 2.05047782 53.5625 3.8125 C54.28566406 4.04259766 55.00882813 4.27269531 55.75390625 4.50976562 C61.02973301 6.21723301 61.02973301 6.21723301 62.1875 7.375 C63.40138671 21.17284555 61.89291736 34.8657511 59.1875 48.375 C59.05891602 49.07367188 58.93033203 49.77234375 58.79785156 50.4921875 C55.14221367 70.21216797 47.82102312 92.05387176 31.1875 104.375 C24.12350433 109.03423119 17.27876188 107.7142582 9.3125 106.25 C2.52977446 104.69715139 -3.00347273 102.16686922 -8.8125 98.375 C-9.42996094 97.98441406 -10.04742188 97.59382812 -10.68359375 97.19140625 C-16.14632981 93.2544219 -18.45344144 86.75916694 -19.8125 80.375 C-21.636962 54.69160801 -17.69857829 25.60688029 -5.8125 2.375 C-3.8125 0.375 -3.8125 0.375 0 0 Z " fill="#020202" transform="translate(981.8125,447.625)"/>
<path d="M0 0 C9.58577764 5.89733711 21.33939326 16.4220734 24.6875 27.5625 C26.49723481 40.86816388 21.46751764 55.37468661 14 66.25 C8.40652677 73.6005308 0.98236864 80.52037591 -8.5 81.875 C-14.3272896 82.18998863 -17.4719779 80.69460254 -22.3125 77.5625 C-24.43296166 76.92628455 -24.43296166 76.92628455 -26.3125 76.5625 C-26.36148437 77.35011719 -26.41046875 78.13773438 -26.4609375 78.94921875 C-27.15120515 89.00570438 -27.9118572 99.01508864 -31.3125 108.5625 C-38.39633488 108.20230501 -49.08115575 106.79384425 -54.3125 101.5625 C-54.84550457 93.66110105 -54.00052579 86.07587436 -52.625 78.3125 C-52.25799057 76.14211685 -51.89216796 73.97153278 -51.52734375 71.80078125 C-51.33124512 70.64658691 -51.13514648 69.49239258 -50.93310547 68.30322266 C-50.25926814 64.24164296 -49.62562363 60.17528209 -49.00390625 56.10546875 C-48.89430069 55.39039154 -48.78469513 54.67531433 -48.67176819 53.93856812 C-48.23662816 51.09773824 -47.80186731 48.25686497 -47.37246704 45.41516113 C-45.47049745 32.85317555 -45.47049745 32.85317555 -44.18359375 28.11328125 C-42.94564919 23.06713057 -43.01730856 18.1279507 -42.94921875 12.953125 C-42.3125 9.5625 -42.3125 9.5625 -40.10546875 7.2734375 C-37.4263784 5.63226048 -34.80819894 4.21245225 -31.9375 2.9375 C-31.04289062 2.53273438 -30.14828125 2.12796875 -29.2265625 1.7109375 C-20.40935923 -1.76393885 -9.04295086 -4.04164539 0 0 Z " fill="#030303" transform="translate(1092.3125,473.4375)"/>
<path d="M0 0 C4.4343216 3.57381514 8.37153709 7.34829971 9.37109375 13.15625 C9.5803416 20.54146809 7.40126242 26.48606712 4 33 C2 35 2 35 -0.33837891 35.22705078 C-1.29147949 35.21657715 -2.24458008 35.20610352 -3.2265625 35.1953125 C-4.7734375 35.18564453 -4.7734375 35.18564453 -6.3515625 35.17578125 C-7.97191406 35.15064453 -7.97191406 35.15064453 -9.625 35.125 C-10.71296875 35.11597656 -11.8009375 35.10695313 -12.921875 35.09765625 C-15.61480152 35.07403409 -18.30729255 35.04109556 -21 35 C-21.07475905 31.1125295 -20.98255077 27.74740293 -20 24 C-19.93311409 22.08438746 -19.91468281 20.16664408 -19.9375 18.25 C-19.94652344 17.26515625 -19.95554687 16.2803125 -19.96484375 15.265625 C-19.97644531 14.51796875 -19.98804688 13.7703125 -20 13 C-23.07877133 12.5494481 -25.21010698 12.49957088 -27.88671875 14.1953125 C-32.2660997 17.84938717 -34.73957438 20.61276513 -35.375 26.4375 C-34.90923969 30.86222295 -34.1253194 31.84212519 -31 35 C-27.64836442 37.19786087 -24.15052976 39.09717983 -20.625 41 C-4.1035495 49.99095511 -4.1035495 49.99095511 -0.6953125 57.56640625 C1.43976541 65.03917894 0.91447625 73.03421957 -2.6640625 79.9375 C-8.33468068 88.6921386 -15.6937775 95.53355359 -26 98 C-39.543015 99.58061714 -51.95850272 97.64405838 -63.16796875 89.484375 C-69.27278948 84.53803838 -72.01212935 77.47280338 -73.390625 69.8359375 C-73.5 68 -73.5 68 -73 65 C-67.82565012 60.29076022 -60.71509312 58.8125 -53.875 58.8125 C-52.59625 58.874375 -51.3175 58.93625 -50 59 C-49.61328125 59.75925781 -49.2265625 60.51851562 -48.828125 61.30078125 C-48.30734375 62.29464844 -47.7865625 63.28851562 -47.25 64.3125 C-46.48429688 65.79169922 -46.48429688 65.79169922 -45.703125 67.30078125 C-43.98582065 70.02247232 -42.79195324 71.43902052 -40 73 C-37.74654591 73.4328895 -37.74654591 73.4328895 -35.4375 73.3125 C-34.29087891 73.30669922 -34.29087891 73.30669922 -33.12109375 73.30078125 C-30.70211251 73.11368696 -30.70211251 73.11368696 -28 71 C-28.00589421 68.61969694 -28.00589421 68.61969694 -29 66 C-31.14178485 64.46153482 -33.04955688 63.30429061 -35.375 62.125 C-36.65601184 61.43295535 -37.93594833 60.73891677 -39.21484375 60.04296875 C-39.85405762 59.70056152 -40.49327148 59.3581543 -41.15185547 59.00537109 C-50.64427324 53.84159614 -60.2352225 48.12419203 -64.3359375 37.640625 C-66.91436122 27.3875989 -65.11311642 18.08998476 -60 9 C-55.05149034 1.3129947 -48.25083815 -6.75400272 -39.24609375 -9.5625 C-25.43850925 -12.25197733 -11.69764041 -7.19986347 0 0 Z " fill="#020202" transform="translate(764,457)"/>
<path d="M0 0 C7.44950639 0.66937594 17.31275596 1.60963096 22.8203125 7.1171875 C22.68828893 14.98909266 19.42550248 23.1111197 17.21826172 30.61328125 C14.29398124 40.676089 12.0292864 50.8773333 9.8203125 61.1171875 C14.99374215 57.56717812 18.17038244 52.84408064 21.7578125 47.8046875 C24.08726887 44.55657228 26.44012091 41.32829722 28.8203125 38.1171875 C29.59592529 37.02784912 29.59592529 37.02784912 30.38720703 35.91650391 C31.77256357 34.0989847 33.0417604 32.55080288 34.8203125 31.1171875 C38.20523073 30.73958706 39.79670381 31.36859127 42.52685547 33.36523438 C44.36736039 34.95376237 46.06094293 36.62651546 47.7578125 38.3671875 C48.65983398 39.22763672 48.65983398 39.22763672 49.58007812 40.10546875 C53.75923826 44.30856451 53.75923826 44.30856451 54.015625 47.703125 C52.41352955 50.93872954 50.36173912 52.99213141 47.7578125 55.4921875 C47.26410156 55.97042969 46.77039063 56.44867188 46.26171875 56.94140625 C42.76664384 60.30066218 39.17509266 63.54533991 35.4765625 66.6796875 C34.93 67.1540625 34.3834375 67.6284375 33.8203125 68.1171875 C33.2325 68.5915625 32.6446875 69.0659375 32.0390625 69.5546875 C30.60749463 71.03299878 30.60749463 71.03299878 30.94140625 72.98046875 C34.13985499 80.75625302 39.5204543 87.26191859 45.4140625 93.14453125 C46.8203125 95.1171875 46.8203125 95.1171875 46.8203125 97.125 C43.47250425 103.79446174 33.62855177 109.41488058 26.8203125 112.1171875 C23.6328125 112.5546875 23.6328125 112.5546875 20.8203125 111.1171875 C15.67518644 105.04538551 13.0099932 97.08817753 10.17993164 89.74414062 C8.88621052 85.70886754 8.88621052 85.70886754 5.8203125 83.1171875 C5.73990723 83.7877417 5.65950195 84.4582959 5.57666016 85.14916992 C5.20658306 88.20191001 4.82605451 91.25325999 4.4453125 94.3046875 C4.25582031 95.88733398 4.25582031 95.88733398 4.0625 97.50195312 C3.93359375 98.52353516 3.8046875 99.54511719 3.671875 100.59765625 C3.55666504 101.53504639 3.44145508 102.47243652 3.32275391 103.43823242 C2.80516915 106.19792994 1.94728844 108.55199497 0.8203125 111.1171875 C-4.29358385 111.30731954 -8.5181099 110.72394207 -13.4296875 109.3046875 C-14.63109375 108.96824219 -15.8325 108.63179687 -17.0703125 108.28515625 C-20.10771014 107.14422422 -21.27641335 106.6388679 -23.1796875 104.1171875 C-24.50166483 95.31119973 -22.6067809 85.84304757 -21.3046875 77.1171875 C-21.20108917 76.40906921 -21.09749084 75.70095093 -20.99075317 74.97137451 C-18.98026914 61.42877198 -16.15455433 48.08769317 -13.1171875 34.7421875 C-12.90394836 33.80020508 -12.69070923 32.85822266 -12.4710083 31.88769531 C-5.27069589 0.28337075 -5.27069589 0.28337075 0 0 Z " fill="#020202" transform="translate(793.1796875,442.8828125)"/>
<path d="M0 0 C5.99023602 -0.25576289 10.70806472 0.48247752 16.375 2.375 C17.08527344 2.59671875 17.79554688 2.8184375 18.52734375 3.046875 C23.72284226 4.72284226 23.72284226 4.72284226 26 7 C25.47098778 10.08484234 24.80751566 12.98328365 24 16 C23.60699707 17.47533203 23.60699707 17.47533203 23.20605469 18.98046875 C22.60131151 21.23111788 21.99429353 23.48115651 21.38549805 25.73071289 C14.28662288 52.21042627 8.64404151 79.28783627 5.47265625 106.53125 C5 110 5 110 4 111 C-1.10551754 111.2886285 -5.35243635 110.60270508 -10.25 109.1875 C-11.45140625 108.85105469 -12.6528125 108.51460937 -13.890625 108.16796875 C-16.92230207 107.02918553 -18.09337922 106.51117625 -20 104 C-21.01192133 96.9623123 -19.7722816 89.43972726 -18.8125 82.4375 C-18.68012939 81.45426758 -18.54775879 80.47103516 -18.41137695 79.45800781 C-16.74240942 67.54939501 -14.44355925 55.77074174 -12 44 C-11.75846191 42.83227051 -11.51692383 41.66454102 -11.26806641 40.46142578 C-4.83409916 9.66819831 -4.83409916 9.66819831 0 0 Z " fill="#030303" transform="translate(903,443)"/>
<path d="M0 0 C7.38027854 0.63089478 17.75839462 1.60605087 23.171875 7.01953125 C22.84079116 13.78128194 20.54081386 20.57957567 18.77050781 27.07617188 C16.70214748 34.67899727 14.90835395 42.33536055 13.171875 50.01953125 C12.83518799 51.4905127 12.83518799 51.4905127 12.49169922 52.99121094 C8.94396191 68.58227056 6.04710316 84.160411 3.73266602 99.97485352 C3.44540649 101.92089478 3.44540649 101.92089478 3.15234375 103.90625 C2.98629639 105.06342529 2.82024902 106.22060059 2.64916992 107.4128418 C2.171875 110.01953125 2.171875 110.01953125 1.171875 111.01953125 C-6.13727804 111.72233443 -15.62072304 110.38965774 -21.48925781 105.68896484 C-24.76533165 101.60402814 -22.73081192 93.66423994 -22.20703125 88.7421875 C-21.94043924 86.52146293 -21.66820857 84.30140871 -21.390625 82.08203125 C-21.18856445 80.37950195 -21.18856445 80.37950195 -20.98242188 78.64257812 C-19.96074635 70.28477395 -19.96074635 70.28477395 -18.828125 68.01953125 C-18.5273266 66.21176266 -18.26313334 64.39786345 -18.015625 62.58203125 C-16.01696489 49.23331589 -12.90123419 36.09253338 -9.828125 22.95703125 C-9.59125977 21.92288086 -9.35439453 20.88873047 -9.11035156 19.82324219 C-4.40721268 0.04708561 -4.40721268 0.04708561 0 0 Z " fill="#030303" transform="translate(942.828125,442.98046875)"/>
<path d="M0 0 C7.65434238 0.69483049 14.59471944 2.63537335 21.85546875 5.1171875 C22.76011302 8.73798005 22.84977977 11.36093982 22.08276367 15.00488281 C21.888936 15.950672 21.69510834 16.89646118 21.4954071 17.87091064 C21.16896965 19.39273956 21.16896965 19.39273956 20.8359375 20.9453125 C20.50798943 22.53892609 20.50798943 22.53892609 20.17341614 24.16473389 C19.47241739 27.56752558 18.75890597 30.96750983 18.04296875 34.3671875 C17.11108826 38.80813536 16.1866128 43.25047914 15.2734375 47.6953125 C15.05259491 48.76914185 14.83175232 49.84297119 14.60421753 50.94934082 C13.07812304 58.55126701 11.99918603 66.09516516 11.3059082 73.81542969 C10.88383878 76.90923284 10.16218758 79.29754955 8.85546875 82.1171875 C1.05887728 81.77220558 -9.39560075 80.866118 -15.14453125 75.1171875 C-16.80186481 64.85032897 -13.75759832 53.25624901 -12.14453125 43.1171875 C-11.95165527 41.89177246 -11.7587793 40.66635742 -11.56005859 39.40380859 C-11.03547611 36.09132737 -10.50465178 32.78007441 -9.96591187 29.46987915 C-9.65269938 27.542452 -9.34350753 25.61437285 -9.03442383 23.6862793 C-5.15362446 0.28161882 -5.15362446 0.28161882 0 0 Z " fill="#030303" transform="translate(861.14453125,472.8828125)"/>
<path d="M0 0 C5.68790237 1.76165675 9.73733571 3.83411488 13 9 C14.60089019 12.20178039 14.3573266 15.51768987 14 19 C11.95067349 24.60868309 8.89634147 27.3909214 3.75 30.25 C-1.2324047 31.60883765 -6.01409234 31.83849434 -10.8125 29.8125 C-13.86233368 27.28549495 -16.22459283 24.55081434 -18 21 C-18.6130679 13.88841238 -17.23368513 8.95121881 -12.6796875 3.38671875 C-8.85204122 -0.32588898 -5.05619484 -0.99105089 0 0 Z " fill="#050505" transform="translate(877,437)"/>
<path d="M0 0 C3.77932641 0.08215927 5.46800235 0.46608178 8.1640625 3.171875 C11.3846741 8.13298734 10.65124686 13.29162193 10 19 C8.40948985 25.46033056 5.37163064 31.85725656 0 36 C-3.8125 37 -3.8125 37 -7 37 C-7.33 36.67 -7.66 36.34 -8 36 C-7.86696124 28.18374357 -6.24995064 20.53840742 -4.5625 12.9375 C-4.34529297 11.90689453 -4.12808594 10.87628906 -3.90429688 9.81445312 C-3.68966797 8.83283203 -3.47503906 7.85121094 -3.25390625 6.83984375 C-3.06127197 5.95675537 -2.8686377 5.07366699 -2.67016602 4.16381836 C-2 2 -2 2 0 0 Z " fill="#F9F9F9" transform="translate(1079,495)"/>
</svg>
